# xmcd
#
# Track frame offsets:
#	150
#	17110
#	45509
#	69355
#	99180
#	149092
#	167212
#
# Disc length: 2467 seconds
#
# Revision: 0
# Processed by: cddbd v1.5.2PL0 Copyright (c) Steve Scherf et al.
# Submitted via: SynApp - FreeCDDB Version: 2.3
#
DISCID=5909a107
DTITLE=Willy Michl - Live [CD 1)
DYEAR=0
DGENRE=Blues
TTITLE0=Willy Michl - sitz di her
TTITLE1=Willy Michl - der fuchs
TTITLE2=Willy Michl - orang utan
TTITLE3=Willy Michl - drah di net um
TTITLE4=Willy Michl - medley
TTITLE5=Willy Michl - morgenstund
TTITLE6=Willy Michl - schwabing
EXTD=
EXTT0=
EXTT1=
EXTT2=
EXTT3=
EXTT4=
EXTT5=
EXTT6=
PLAYORDER=
